name analog
datacolumns 19
datarows 56
range 0.0 0.0275
endheader
time	ground_force_vx	ground_force_vy	ground_force_vz	ground_force_px	ground_force_py	ground_force_pz	l_ground_force_vx	l_ground_force_vy	l_ground_force_vz	l_ground_force_px	l_ground_force_py	l_ground_force_pz	ground_torque_x	ground_torque_y	ground_torque_z	l_ground_torque_x	l_ground_torque_y	l_ground_torque_z
0.0	-0.0	-0.0	-0.0	10.169998168945312	29.093753814697266	-386.2119445800781	-10.671456336975098	-26.558780670166016	-230.66612243652344	-0.0	-0.0	-0.0	-0.0	-0.0	-0.0	70201.1875	19637.107421875	-6940.0341796875
0.0005	-0.0	-0.0	-0.0	10.11858367919922	28.6063232421875	-386.0256958007813	-10.379161834716797	-26.81876945495605	-229.0860137939453	-0.0	-0.0	-0.0	-0.0	-0.0	-0.0	70074.4453125	19738.416015625	-6821.2939453125
0.001	-0.0	-0.0	-0.0	9.646236419677734	28.672969818115234	-387.31536865234375	-9.99759578704834	-26.615684509277344	-228.34515380859372	-0.0	-0.0	-0.0	-0.0	-0.0	-0.0	69907.3984375	19769.43359375	-6815.87158203125
0.0015	-0.0	-0.0	-0.0	10.15821361541748	29.29295921325684	-387.9608459472656	-10.614413261413574	-26.584827423095703	-229.04345703125	-0.0	-0.0	-0.0	-0.0	-0.0	-0.0	70267.78125	19869.447265625	-6954.3720703125
0.002	-0.0	-0.0	-0.0	9.770187377929688	28.862850189208984	-387.0242004394531	-10.734004974365234	-26.499998092651367	-227.84214782714844	-0.0	-0.0	-0.0	-0.0	-0.0	-0.0	69705.1171875	19834.68359375	-6831.95458984375
0.0025	-0.0	-0.0	-0.0	9.889810562133787	29.05373764038086	-387.1459045410156	-10.366887092590332	-26.773691177368164	-227.41802978515625	-0.0	-0.0	-0.0	-0.0	-0.0	-0.0	69858.4375	19794.673828125	-6905.44677734375
0.003	-0.0	-0.0	-0.0	9.846138954162598	29.01072883605957	-389.2647705078125	-10.39439296722412	-26.786474227905277	-228.5744171142578	-0.0	-0.0	-0.0	-0.0	-0.0	-0.0	69950.8125	19737.21484375	-6886.0673828125
0.0035	-0.0	-0.0	-0.0	10.050381660461426	28.75874137878418	-388.6705627441406	-10.290451049804688	-26.216447830200195	-227.35736083984372	-0.0	-0.0	-0.0	-0.0	-0.0	-0.0	69882.6953125	19714.2578125	-6910.49072265625
0.004	-0.0	-0.0	-0.0	9.621123313903809	28.90695571899414	-388.2644958496094	-10.350760459899902	-26.304851531982425	-227.7655334472656	-0.0	-0.0	-0.0	-0.0	-0.0	-0.0	69965.421875	19575.83984375	-6930.2197265625
0.0045000000000000005	-0.0	-0.0	-0.0	9.857177734375	28.699989318847656	-387.9108276367188	-10.65890121459961	-26.261449813842773	-228.10867309570312	-0.0	-0.0	-0.0	-0.0	-0.0	-0.0	69842.578125	19674.01171875	-6861.62158203125
0.005	-0.0	-0.0	-0.0	9.902366638183594	28.833351135253903	-389.2042846679688	-10.70504665374756	-26.37843894958496	-227.1249237060547	-0.0	-0.0	-0.0	-0.0	-0.0	-0.0	69892.3203125	19826.025390625	-6807.37841796875
0.0055	-0.0	-0.0	-0.0	9.24870777130127	29.145641326904297	-388.79205322265625	-10.571465492248535	-26.393367767333984	-228.05458068847656	-0.0	-0.0	-0.0	-0.0	-0.0	-0.0	69872.296875	19814.12890625	-6876.568359375
0.006	-0.0	-0.0	-0.0	9.813156127929688	28.74460220336914	-389.3806762695313	-10.704540252685549	-26.246286392211918	-228.34515380859372	-0.0	-0.0	-0.0	-0.0	-0.0	-0.0	69534.453125	19613.099609375	-6827.15625
0.006500000000000001	-0.0	-0.0	-0.0	9.45571994781494	28.75960731506348	-388.3809814453125	-10.704209327697754	-26.408184051513672	-227.2397308349609	-0.0	-0.0	-0.0	-0.0	-0.0	-0.0	69597.375	19700.09765625	-6866.71337890625
0.007	-0.0	-0.0	-0.0	9.51516342163086	29.072145462036133	-389.0841064453125	-10.912104606628418	-26.45200729370117	-226.8330535888672	-0.0	-0.0	-0.0	-0.0	-0.0	-0.0	69808.8046875	19601.052734375	-6941.146484375
0.0075	-0.0	-0.0	-0.0	9.798514366149902	28.581602096557617	-387.9075012207031	-10.306154251098633	-26.629535675048828	-228.4644317626953	-0.0	-0.0	-0.0	-0.0	-0.0	-0.0	69841.578125	19654.033203125	-6935.580078125
0.008	-0.0	-0.0	-0.0	9.767620086669922	29.13295555114746	-388.67083740234375	-10.364643096923828	-26.629783630371094	-227.4754180908203	-0.0	-0.0	-0.0	-0.0	-0.0	-0.0	69808.4140625	19641.859375	-6827.15478515625
0.0085	-0.0	-0.0	-0.0	9.74065399169922	28.7144775390625	-388.9659423828125	-10.038780212402344	-26.408184051513672	-227.0623779296875	-0.0	-0.0	-0.0	-0.0	-0.0	-0.0	69817.4765625	19807.2265625	-6960.7177734375
0.009000000000000001	-0.0	-0.0	-0.0	9.603194236755373	28.69728660583496	-390.8560485839844	-10.42473602294922	-26.52513694763184	-228.34515380859372	-0.0	-0.0	-0.0	-0.0	-0.0	-0.0	69969.3984375	19909.4375	-6905.8251953125
0.0095	-0.0	-0.0	-0.0	9.424546241760254	28.504337310791016	-388.6237182617188	-10.067285537719728	-26.553543090820312	-228.34515380859372	-0.0	-0.0	-0.0	-0.0	-0.0	-0.0	69705.046875	19619.517578125	-6910.3291015625
0.01	-0.0	-0.0	-0.0	9.677602767944336	28.38629722595215	-389.0208435058594	-10.201740264892578	-25.96338653564453	-227.35379028320312	-0.0	-0.0	-0.0	-0.0	-0.0	-0.0	69848.484375	19425.916015625	-6956.306640625
0.0105	-0.0	-0.0	-0.0	9.27789306640625	28.671602249145508	-390.1513671875	-10.020620346069336	-26.482398986816406	-230.04969787597656	-0.0	-0.0	-0.0	-0.0	-0.0	-0.0	69747.1328125	19457.408203125	-6955.23828125
0.011	-0.0	-0.0	-0.0	9.352953910827637	29.02823829650879	-390.039794921875	-10.393274307250977	-26.92406272888184	-228.8212738037109	-0.0	-0.0	-0.0	-0.0	-0.0	-0.0	69770.71875	19629.515625	-6902.3564453125
0.0115	-0.0	-0.0	-0.0	9.113550186157228	28.775054931640625	-388.3677062988281	-10.645294189453123	-26.64518928527832	-227.35296630859372	-0.0	-0.0	-0.0	-0.0	-0.0	-0.0	69854.9921875	19847.802734375	-6896.39599609375
0.012	-0.0	-0.0	-0.0	9.339113235473633	28.53571128845215	-388.4425354003906	-10.27649211883545	-26.67314910888672	-227.81167602539065	-0.0	-0.0	-0.0	-0.0	-0.0	-0.0	69745.859375	19635.515625	-6996.12548828125
0.0125	-0.0	-0.0	-0.0	9.400561332702637	28.68606376647949	-389.2594604492188	-10.481775283813477	-26.69226455688477	-226.4691162109375	-0.0	-0.0	-0.0	-0.0	-0.0	-0.0	69832.765625	19700.154296875	-6930.6044921875
0.013000000000000001	-0.0	-0.0	-0.0	9.517814636230469	28.446439743041992	-389.0945739746094	-10.495512008666992	-26.46322059631348	-226.59939575195312	-0.0	-0.0	-0.0	-0.0	-0.0	-0.0	69845.0625	19662.96484375	-6912.0439453125
0.0135	-0.0	-0.0	-0.0	9.188682556152344	28.42522621154785	-388.687255859375	-10.120661735534668	-26.394481658935547	-227.94183349609372	-0.0	-0.0	-0.0	-0.0	-0.0	-0.0	70050.6796875	19800.376953125	-6836.630859375
0.014	-0.0	-0.0	-0.0	9.518070220947266	28.446311950683597	-387.8459167480469	-10.60421657562256	-26.88358497619629	-227.754638671875	-0.0	-0.0	-0.0	-0.0	-0.0	-0.0	69915.578125	19845.0390625	-6887.2705078125
0.0145	-0.0	-0.0	-0.0	9.429025650024414	28.267969131469727	-387.521484375	-10.276841163635254	-26.65959930419922	-229.63462829589844	-0.0	-0.0	-0.0	-0.0	-0.0	-0.0	70087.140625	19922.0625	-6966.92578125
0.015	-0.0	-0.0	-0.0	9.469901084899902	28.289167404174805	-387.4150390625	-10.352055549621582	-26.93811416625977	-229.82418823242188	-0.0	-0.0	-0.0	-0.0	-0.0	-0.0	70173.328125	19985.19921875	-6868.65869140625
0.0155	-0.0	-0.0	-0.0	9.318440437316896	27.97344207763672	-386.87115478515625	-10.188258171081545	-27.216503143310547	-230.49313354492188	-0.0	-0.0	-0.0	-0.0	-0.0	-0.0	70840.6171875	19881.98046875	-6921.37158203125
0.016	-0.0	-0.0	-0.0	9.050559997558594	27.697528839111328	-385.7256774902344	-10.148140907287598	-27.393064498901367	-231.869384765625	-0.0	-0.0	-0.0	-0.0	-0.0	-0.0	70809.5625	20014.96875	-6875.52978515625
0.0165	-0.0	-0.0	-0.0	9.27789306640625	27.6482048034668	-384.8777465820313	-10.201740264892578	-27.63140296936035	-232.34336853027344	-0.0	-0.0	-0.0	-0.0	-0.0	-0.0	71040.9375	19872.6796875	-6930.45703125
0.017	-0.0	-0.0	-0.0	9.255146980285645	27.98694610595703	-384.2749938964844	-10.237408638000488	-28.161415100097656	-233.28546142578125	-0.0	-0.0	-0.0	-0.0	-0.0	-0.0	70978.1796875	20051.35546875	-6972.18017578125
0.0175	-0.0	-0.0	-0.0	9.595026969909668	28.23767471313477	-384.3645629882813	-10.148923873901367	-28.148324966430664	-233.2852478027344	-0.0	-0.0	-0.0	-0.0	-0.0	-0.0	71522.1875	20006.8828125	-7053.57568359375
0.018000000000000002	-0.0	-0.0	-0.0	9.280834197998049	28.15205383300781	-383.7097778320313	-9.961874008178713	-28.2858829498291	-234.4748077392578	-0.0	-0.0	-0.0	-0.0	-0.0	-0.0	71821.515625	20116.7890625	-6939.16552734375
0.0185	-0.0	-0.0	-0.0	9.771552085876465	27.721912384033203	-384.6036071777344	-10.175639152526855	-28.325275421142575	-235.0303955078125	-0.0	-0.0	-0.0	-0.0	-0.0	-0.0	71919.375	20089.99609375	-7028.23681640625
0.019	-0.0	-0.0	-0.0	9.315004348754885	27.732568740844727	-384.0973205566406	-10.037312507629396	-28.4525203704834	-235.1747589111328	-0.0	-0.0	-0.0	-0.0	-0.0	-0.0	71709.0703125	20246.634765625	-7116.3544921875
0.0195	-0.0	-0.0	-0.0	9.329708099365234	27.4406852722168	-382.4425964355469	-9.98730182647705	-28.42671585083008	-235.12472534179688	-0.0	-0.0	-0.0	-0.0	-0.0	-0.0	71746.1328125	20340.451171875	-6951.9736328125
0.02	-0.0	-0.0	-0.0	9.265022277832031	27.63042449951172	-382.5957946777344	-10.15037727355957	-28.617395401000977	-235.13064575195312	-0.0	-0.0	-0.0	-0.0	-0.0	-0.0	71878.9765625	20199.341796875	-7044.865234375
0.0205	-0.0	-0.0	-0.0	9.443501472473145	27.554096221923828	-381.13189697265625	-9.961174964904783	-28.527904510498047	-233.53515625	-0.0	-0.0	-0.0	-0.0	-0.0	-0.0	71740.765625	20226.201171875	-7078.646484375
0.021	-0.0	-0.0	-0.0	9.354475021362305	28.025203704833984	-382.3930969238281	-9.986215591430664	-28.46487236022949	-235.12823486328125	-0.0	-0.0	-0.0	-0.0	-0.0	-0.0	71794.859375	20191.853515625	-6976.95263671875
0.021500000000000002	-0.0	-0.0	-0.0	8.946366310119629	27.63042449951172	-383.0499267578125	-9.93560791015625	-28.55305290222168	-235.8264617919922	-0.0	-0.0	-0.0	-0.0	-0.0	-0.0	71790.7890625	20070.14453125	-7023.47802734375
0.022	-0.0	-0.0	-0.0	9.391301155090332	27.744733810424805	-382.6973876953125	-10.25273323059082	-28.19965362548828	-234.2312469482422	-0.0	-0.0	-0.0	-0.0	-0.0	-0.0	71770.109375	20160.193359375	-7070.29150390625
0.0225	-0.0	-0.0	-0.0	9.201200485229492	27.605411529541016	-380.4243774414063	-9.756905555725098	-28.41343688964844	-233.12991333007807	-0.0	-0.0	-0.0	-0.0	-0.0	-0.0	71771.8515625	20253.583984375	-7036.1806640625
0.023	-0.0	-0.0	-0.0	9.520602226257324	27.568174362182617	-380.3175964355469	-10.063295364379885	-28.78049087524414	-234.52542114257807	-0.0	-0.0	-0.0	-0.0	-0.0	-0.0	71717.9140625	20154.25390625	-7057.31787109375
0.0235	-0.0	-0.0	-0.0	9.32993507385254	27.0040283203125	-380.93402099609375	-9.78291130065918	-28.262939453125	-234.5726623535156	-0.0	-0.0	-0.0	-0.0	-0.0	-0.0	71500.578125	20244.15234375	-7006.58154296875
0.024	-0.0	-0.0	-0.0	9.43170166015625	27.18477249145508	-381.3856201171875	-10.140341758728027	-28.476261138916016	-235.1348571777344	-0.0	-0.0	-0.0	-0.0	-0.0	-0.0	71861.1953125	20208.318359375	-7091.83154296875
0.0245	-0.0	-0.0	-0.0	9.407315254211426	27.480100631713867	-380.5688171386719	-10.342491149902344	-28.363431930541992	-235.8821563720703	-0.0	-0.0	-0.0	-0.0	-0.0	-0.0	72158.25	20239.47265625	-7070.51416015625
0.025	-0.0	-0.0	-0.0	8.422287940979004	27.52102279663086	-380.6316223144531	-9.859038352966309	-28.65619659423828	-236.13671875	-0.0	-0.0	-0.0	-0.0	-0.0	-0.0	71814.78125	20258.41796875	-6934.13134765625
0.025500000000000002	-0.0	-0.0	-0.0	9.075251579284668	27.071443557739254	-381.6260986328125	-10.342950820922852	-28.82892227172852	-235.3756866455078	-0.0	-0.0	-0.0	-0.0	-0.0	-0.0	72078.7734375	20236.751953125	-7027.50048828125
0.026000000000000002	-0.0	-0.0	-0.0	8.819801330566406	27.03550148010254	-381.6921997070313	-9.882938385009766	-28.399105072021484	-236.0737762451172	-0.0	-0.0	-0.0	-0.0	-0.0	-0.0	71791.390625	20548.189453125	-7040.60205078125
0.0265	-0.0	-0.0	-0.0	9.010261535644531	27.154451370239254	-380.5168151855469	-10.26658821105957	-28.833675384521484	-235.9325714111328	-0.0	-0.0	-0.0	-0.0	-0.0	-0.0	71956.1796875	20159.017578125	-6977.69482421875
0.027	-0.0	-0.0	-0.0	9.521726608276367	26.917381286621094	-380.2571411132813	-10.089280128479004	-28.63987159729004	-235.23471069335935	-0.0	-0.0	-0.0	-0.0	-0.0	-0.0	71900.6953125	20032.986328125	-6985.49951171875
0.0275	-0.0	-0.0	-0.0	8.77811336517334	26.70907592773437	-382.493896484375	-10.124833106994627	-28.71630096435547	-235.51402282714844	-0.0	-0.0	-0.0	-0.0	-0.0	-0.0	72046.09375	20352.828125	-6989.49169921875
